<svg xmlns="http://www.w3.org/2000/svg" xmlns:xlink="http://www.w3.org/1999/xlink" width="650" zoomAndPan="magnify" viewBox="0 0 487.5 487.499999" height="650" preserveAspectRatio="xMidYMid meet" version="1.0"><metadata><manifest xmlns:c2pa="http://c2pa.org/manifest">AABCHWp1bWIAAAAeanVtZGMycGEAEQAQgAAAqgA4m3EDYzJwYQAAAEH3anVtYgAAAEdqdW1kYzJtYQARABCAAACqADibcQN1cm46YzJwYTphMjc1MTU3Zi00NjRmLTRjMDEtYmJjOS04NjA1YWNmNzA1MGIAAAAB5Gp1bWIAAAApanVtZGMyYXMAEQAQgAAAqgA4m3EDYzJwYS5hc3NlcnRpb25zAAAAAO5qdW1iAAAAQWp1bWRjYm9yABEAEIAAAKoAOJtxE2MycGEuYWN0aW9ucy52MgAAAAAYYzJzaBKeoi1temr89zXkpt3HAxoAAAClY2JvcqFnYWN0aW9uc4GjZmFjdGlvbmxjMnBhLmNyZWF0ZWRtc29mdHdhcmVBZ2VudGhDYW52YSBBSXFkaWdpdGFsU291cmNlVHlwZXhTaHR0cDovL2N2LmlwdGMub3JnL25ld3Njb2Rlcy9kaWdpdGFsc291cmNldHlwZS9jb21wb3NpdGVXaXRoVHJhaW5lZEFsZ29yaXRobWljTWVkaWEAAADFanVtYgAAAEBqdW1kY2JvcgARABCAAACqADibcRNjMnBhLmhhc2guZGF0YQAAAAAYYzJzaLaosRspkhEA3iV4s0oawoYAAAB9Y2JvcqVqZXhjbHVzaW9uc4GiZXN0YXJ0GQERZmxlbmd0aBlYKGRuYW1lbmp1bWJmIG1hbmlmZXN0Y2FsZ2ZzaGEyNTZkaGFzaFgg/uMHblJEm09HlPriN6R5SIfjGR+AxLGbu8wniiO22G9jcGFkSQAAAAAAAAAAAAAAAgtqdW1iAAAAJ2p1bWRjMmNsABEAEIAAAKoAOJtxA2MycGEuY2xhaW0udjIAAAAB3GNib3Knamluc3RhbmNlSUR4LHhtcDppaWQ6ZDliMzBkYzgtZTAwZi00NTlhLThlNzItYzc0ZWNjZDBhZmVkdGNsYWltX2dlbmVyYXRvcl9pbmZvo2RuYW1lZ2MycGEtcnNndmVyc2lvbmUwLjAuMHdvcmcuY29udGVudGF1dGguYzJwYV9yc2UwLjAuMGlzaWduYXR1cmV4TXNlbGYjanVtYmY9L2MycGEvdXJuOmMycGE6YTI3NTE1N2YtNDY0Zi00YzAxLWJiYzktODYwNWFjZjcwNTBiL2MycGEuc2lnbmF0dXJlcmNyZWF0ZWRfYXNzZXJ0aW9uc4GiY3VybHgpc2VsZiNqdW1iZj1jMnBhLmFzc2VydGlvbnMvYzJwYS5oYXNoLmRhdGFkaGFzaFggHMHu1oYWZu8LjmdUW9x4JkQf/Pc/aY+q8fmzmVk6oEFzZ2F0aGVyZWRfYXNzZXJ0aW9uc4GiY3VybHgqc2VsZiNqdW1iZj1jMnBhLmFzc2VydGlvbnMvYzJwYS5hY3Rpb25zLnYyZGhhc2hYIBfCL5JQgtJ+w6L7AEzjKmBfYADWeHr5tVfv0xUni2SqaGRjOnRpdGxlZTYuc3ZnY2FsZ2ZzaGEyNTYAAD25anVtYgAAAChqdW1kYzJjcwARABCAAACqADibcQNjMnBhLnNpZ25hdHVyZQAAAD2JY2JvctKEWRKBogE4Jhghg1kFPzCCBTswggMjoAMCAQICEQDIxk24bVnU9YtC6Dxbs9UwMA0GCSqGSIb3DQEBDQUAMCIxIDAeBgNVBAMTF1NpZ25pbmcgSW50ZXJtZWRpYXRlIENBMB4XDTI2MDczMTIzNTE0OVoXDTI2MDgwODIzNTE0OVowODEOMAwGA1UEChMFQ2FudmExDjAMBgNVBAsTBUNhbnZhMRYwFAYDVQQDEw1DYW52YSBTaWduaW5nMIICIjANBgkqhkiG9w0BAQEFAAOCAg8AMIICCgKCAgEA3SlmVVIKOegbzQLM5dIAc1SmZzFOSPBf05mt/4wO8opX1YJpso9eglxCGN7paU3QSAseuiXh5pI36yXqwZlaZcB9dgpifwwnchQrCTIrrs4vLkTBq7Y7trHmjj6wGuE/dMyvYCAm8cAU0MbFQfcRyTceM7G0a6Cp3AQ/C6zc26r+tDOdLkF3AbZpfvaGAjYCzwQXa3Nj73x1Qh07VDe7yJrxbaETHQoOjNJb64Bhddk5zhazTAoXefYUlHcnZTXRjrgOXgOWup69ObdAnTWlUju+SmAg1cnNowa/5JtOdbHkSaEMFMSoQaK9uO3PGBQ2qAAMnxX2eOL9Nz7/tDdgKKMmnkB/XcGay7HqcU1jYdy620gN//XsZkzj4qSGfctcqdm+L2h2h4rWNHXfzr7KkF1KLk2SqdzIirr1uJ78ip9QUA9UPlSU1v83jbBRvUhGjcNm7DbZzlYkGOp0AQW9lKNa/OZuIpirn2SiPeJhHPAfFRBa/G2NJy0nDX872/N88V+Qx0cnCJALS2X0nsMZdFNipbc1JTjP9Ef4eM0krChbUUN16bDrO+xqpsZGcLUUS8Bmj+PLWM7dD22itOMCIwW3wqCl9O3T0cHGmbucuoTpRnwRlgQaY8c506R9+RD0Gv5Gh8F2COsT7WNs83tqORS+CVE3k3nsgK0VfUDy8S0CAwEAAaNWMFQwDgYDVR0PAQH/BAQDAgeAMBMGA1UdJQQMMAoGCCsGAQUFBwMEMAwGA1UdEwEB/wQCMAAwHwYDVR0jBBgwFoAUwjV54nD/b6xBphXmMwKAhIDfkIMwDQYJKoZIhvcNAQENBQADggIBABY9ApX79QvPFhBxGfE98L9kowLwHXmbDxKcZGzuDGT/vBcnW+/IZcy8PVif5Rc4V3KYIed+uV27spRtK5QnZAJsE1Q2ZlpjS/lwsUjVzDIILJf1xoo7WDBq1wZslibEfjEh+QK0FG91dlz/YI4UqQRueV8F+Yen5OfBYxExYGudXZ2rExuWYm+K7T8+T8ciu7VxsOh6mxNLb2VBx84kPO2FoDI0PuaMan6F94Z899TxXQEMKvHp7k1CYO78ajQov8qMfMHtNAq3rR7FHvKAqTANsxu2kdBXyy/Lpe6Z3BzFtzo0xraM7N7xiyI5rWzeLzaBdXse8hFhdrYk5w5wa3GooLhuLwL/q85ZDqK1GFumKMCE/O4WWKvHIpaPUUxkREYU8Zg3xvFFmZ9F76Pti30LlnO2iclrmtXtO1joqV91qB/yS9Mx2zOV63ka7DQvpE1tzfwolOQYFbGOob7ciuEkNZiO4PX6pmXhTKb1vGrtQMh135mGbwjoV0m5W4CB47MQK68YvUrr4m5itlDlA4C6b4lCzs39njcGKqrWORrCERGRFRSsOOmucP9aXn/rZItGkFO2YCW/Q5x0OPp315xQBmzpuVPE/Qhgazkb2Gsw3zsXmcjWeFRJfkBvUdcpufkhWTfjoR2rRNLH1A9/J2i4j9x9qyRE0d90Jxi7RAiJWQboMIIG5DCCBMygAwIBAgIUVAO8HtYmzJurna+6WUNwRot9338wDQYJKoZIhvcNAQELBQAwbTELMAkGA1UEBhMCQVUxDDAKBgNVBAgTA05TVzEPMA0GA1UEBxMGU3lkbmV5MRMwEQYDVQQKEwpDYW52YSBQcm9kMRAwDgYDVQQLEwdTaWduaW5nMRgwFgYDVQQDEw9TaWduaW5nIENBIFByb2QwHhcNMjYwNzMxMDUzNzI3WhcNMjYwODMwMDUzNzU3WjAiMSAwHgYDVQQDExdTaWduaW5nIEludGVybWVkaWF0ZSBDQTCCAiIwDQYJKoZIhvcNAQEBBQADggIPADCCAgoCggIBAMhovxAUFspCnpxSywEuH+kov9+NUG/xW+/jzSqxiI2Ylh3JBWnlG0M1s3Ms3tkpvu2AQtVcsMcTWJKQf+Q9011RxGt7WtMiK90vXrOB9Kcw4hDTktjRxNqtNn30o2HXyWT0t3CvMFJpUbN+w4a2GzDHl49rMPrmA7Gd8Gis5hEMXrfTWYPnrCmS6derALbnFcUo7h/nvBrdBadqKbL7NGjrb4GPAl276ZXYMcBl4lewsSKUF8M/OMTYeeF4d9LDqEQa5KHbZFZ3i5yFn62qZ6EqSz5p7JQ4Ay6LeMqjrAqMvbuzQbl8gOtQcJAKgNi7TqXgJnfX/joIaIr4To6sBVr/xD1xV3bBJ5yeX+vyuSK2IqMKRm/11d1IL/w0YJ4kgP3ZmynAE7tlV/lt0NuOrqTYSiMphguzGU5t1YSlev5YWXn7q2CSNcdD6vmJGiLnx+5mo9bEcLBrQN+rrSfqJ7kJ7ddKkFROSH2Ual4bL5aueZ0xXqnk/srGBgH01vMwv2WxNMSoB+Bs/IBwxWIWmhUA4ajmeA8rH3nQRJc+nseCI/q9n4c+cPpad4ZVEe3d9h0Em9kaqyXnbTbbE2BBF3p7DjfM4kn+bam5KtSVVNIakxv70SYFD/X/zHgZclbLegT4LtLWPupqnUFhQuFzwuT7brJWdg9Hr2uAlRj2SKlLAgMBAAGjggHFMIIBwTAOBgNVHQ8BAf8EBAMCAQYwEgYDVR0TAQH/BAgwBgEB/wIBADAdBgNVHQ4EFgQUwjV54nD/b6xBphXmMwKAhIDfkIMwHwYDVR0jBBgwFoAUSlxt/ndQaL1jKWFk7YbiIcsE4x0wgdcGCCsGAQUFBwEBBIHKMIHHMEwGCCsGAQUFBzABhkBodHRwczovL3BraS5jYW52YS1pbnRlcm5hbC5jb20vdjEvcGtpL2NhbnZhLXByb2QvbDEvc2lnbmluZy9vY3NwMHcGCCsGAQUFBzAChmtodHRwczovL3BraS5jYW52YS1pbnRlcm5hbC5jb20vdjEvcGtpL2NhbnZhLXByb2QvbDEvc2lnbmluZy9pc3N1ZXIvMWRjNDVjODQtNGY5My1lMTBlLTRjMzYtZTdkZWFhMjU2MzkyL2RlcjCBgAYDVR0fBHkwdzB1oHOgcYZvaHR0cHM6Ly9wa2kuY2FudmEtaW50ZXJuYWwuY29tL3YxL3BraS9jYW52YS1wcm9kL2wxL3NpZ25pbmcvaXNzdWVyLzFkYzQ1Yzg0LTRmOTMtZTEwZS00YzM2LWU3ZGVhYTI1NjM5Mi9jcmwvZGVyMA0GCSqGSIb3DQEBCwUAA4ICAQAwjNkGLN/KcmI7CyF5U1tnRv2kzQ7EfXis8HnIFgwCiPxnaN8zOb5tTUgQzNePCiEEFxzhJPhQGaLpyU5OlYypxbqIdn17PBWNJslulFa/y7u/oZZ9ODVpU5KogZmHh4iI0jkdTX2lAVKHl/uvhggyH6z40saGLb1eyfYH3hrrWpbKW5kSrdTCFppkvVoQpDHLFXH9hGaw67aV9PPZ8TFKRCT6hEYZ9o43PV2cma9dCFrhJrLR67egH0TcYhUqvu2R222I8v6hYQh8KgMQPntfirrzQ3nLeIeqn29DZ5hJR3qIa2uCCH2OvvheD8DTJzpzh39fkY34M6RIs4orN7c+7ZkwHmLMs2UdZdmcFm8X/cpHFFvKEKFDYvZ/u2ZP/nZ4RA76mix33YHmIV2T0+AnL0fvuTL8ssPSeMxT/3HR2QwZtlPARwqlhEXNEAc7dibq3kuekY7WXMQ2+qjpL3uLPltOYAadtkPdZbKFZvZbxj4UKYKjqRNQy4qRaunjpmF6/CkteQ9vRjQWMhnzjWHCUV1PFN7zNnaHWJ4rouVdwHHXFxV1i+OqnkavNnacZBvqqmSJK0oa8pTxYdifofSOv6YVvD2MwYSkt+1uUoqb6LiEcZs6ehor4NvmWqb6JOACAHm/UXilhA2mTjP1KyhZkyKnLdz1CYkbG2zBp9ZH0VkGSjCCBkYwggQuoAMCAQICEQDJtWzGUz0MB/MhdTvrUGHhMA0GCSqGSIb3DQEBDQUAMIGBMQswCQYDVQQGEwJBVTETMBEGA1UECgwKQ2FudmEgUHJvZDEXMBUGA1UECwwOQ2xvdWQgUGxhdGZvcm0xDDAKBgNVBAgMA05TVzElMCMGA1UEAwwcQ2FudmEgUHJvZCBSb290IENBIEdsb2JhbCBHMzEPMA0GA1UEBwwGU3lkbmV5MB4XDTI2MDUxNTAzMTI1NVoXDTI2MTExMTAzMTI1NVowbTELMAkGA1UEBhMCQVUxDDAKBgNVBAgTA05TVzEPMA0GA1UEBxMGU3lkbmV5MRMwEQYDVQQKEwpDYW52YSBQcm9kMRAwDgYDVQQLEwdTaWduaW5nMRgwFgYDVQQDEw9TaWduaW5nIENBIFByb2QwggIiMA0GCSqGSIb3DQEBAQUAA4ICDwAwggIKAoICAQD0MHZe4JEmHf4WkG5+tA+VwWcyYzsYw19aFaMnh/QZp8Awkci8GjqGdN09zzOrYEp6k9nAXTT0Y7H3tIUhpDIWy0jqysBROIYvKdGkz5Lp4MH3hB6nXnIiLwXpHfq/O95Cs8Q7wrmMoB1DPMLXBNfA/qRFqQeGVgL2UlxPchxkM1l1jEhSftxgZ09KpYFqcLeDEyPB2+nrfsX9qGuYLnmJOEZs1EtmLa5qjqbdGp7mlO8QawHQUmZ2QsD7YJDoSb7wU3XOHn/6h7ps5rVhTK516ryakEKf9P109m376yyUoyfGxqQD5E4KtlaTVsH0AWon+L3Mo0cpn/QxLikF+2iR2RGxyVsMUaQLwW0UXWlOw471623wcrsvkGZ+Ys40G+QOBrIHa/bq0cA6HZvxSNQt6I7+M0GDbGz2kdD3CobNaXXNGFt4y+qXjoMbx/NLfMhC5+frDobUF8RUSkCQ+Snzi95PibxJFHaInji8LrjueMnunf851089syyrXNqBaFQbyY/1tkESEeQmFudPrDl7qwh6sHSzWLOzrmdKZzJd49+ABzlAcOGU+b6l33JyP7TDzxGsZMRyQaEeQaYELwPIeENs1cIfFRLVlfQimCg0J6db37RK7GIG4z/yrvMbz9vnkk9ckzBF+3CzTtT8z/mtinltewY4QDpPdCfbPa/3fQIDAQABo4HLMIHIMBIGA1UdEwEB/wQIMAYBAf8CAQEwHwYDVR0jBBgwFoAUuzhkeWmWJGuw/pESspQ08s+cY4swHQYDVR0OBBYEFEpcbf53UGi9YylhZO2G4iHLBOMdMA4GA1UdDwEB/wQEAwIBhjBiBgNVHR8EWzBZMFegVaBThlFodHRwOi8vZDF1YWRuMHBqc2loOG0uY2xvdWRmcm9udC5uZXQvY3JsLzVlNDliYWRkLTBhNjYtNGYzYS1iM2NmLTFhNGZkMGY2MzVkMS5jcmwwDQYJKoZIhvcNAQENBQADggIBAKqOtwanq6lfW6XuFzlw/EJHJ2wVi9XY9dTjNZSPlIr3fnJ2qz2JRZ3f5VCa/+TmA9p2wv5aBNKSJyN4/uX1/qPxFunqykKFx3mNDD09JmxMEA1kTsjEePbhf5eBBlw2yg4lC3X+E/PTnx8VXTjwbG9jcaNGbJrD1/SZtYgjbti8YKnZMOeMh93wtv6NttshgFRcxUmS6sbvvhcAKi3U/YsMnbtSBJJH1dirr6rQuGSaghdLbxawcLd1OfMnw8aKe+G+4TOuKjQ10dwvMKwlBRTcnNJuun+vBvPujqfNmt5mc+0Hu2pDwtHB+LbmpC+hx2ksSmgTCLMjC+oiJUeAFnq1EVJlB++nqKzC4uD3XayTG1jvZ8JlJeZwdCIbo16DWmDP5eUrLiDJ8t/cR46hWzlmk549H1f9UZqiTMCyODjrnO0xbwm9yynPJCMvcN98sqWjOGSWQQPUXAqsMdNMzm1hWdjNzxntt5q9uYRa9rvYcmeu8M9Ek8Lz1sWoEaVcpkdI/XOZBY1nJC/xItlK22e39DS/JQibDVZgKsfkOkZ+tXn3rlD7zxpuJMvUtBmRnhA3iqZxa50+XEk1P2fxX2Ke4A025hkk4oVJY2+JZjWgD1qYvXZ5WRHZSU8SMiwx1iiw2PXcF8H/yEeEisZlIGM21Lc4gzhUmRLxrrTsDbbvoWNwYWRZKO8AAAAAAAAAAAAAAAAAAAAAAAAAAAAAAAAAAAAAAAAAAAAAAAAAAAAAAAAAAAAAAAAAAAAAAAAAAAAAAAAAAAAAAAAAAAAAAAAAAAAAAAAAAAAAAAAAAAAAAAAAAAAAAAAAAAAAAAAAAAAAAAAAAAAAAAAAAAAAAAAAAAAAAAAAAAAAAAAAAAAAAAAAAAAAAAAAAAAAAAAAAAAAAAAAAAAAAAAAAAAAAAAAAAAAAAAAAAAAAAAAAAAAAAAAAAAAAAAAAAAAAAAAAAAAAAAAAAAAAAAAAAAAAAAAAAAAAAAAAAAAAAAAAAAAAAAAAAAAAAAAAAAAAAAAAAAAAAAAAAAAAAAAAAAAAAAAAAAAAAAAAAAAAAAAAAAAAAAAAAAAAAAAAAAAAAAAAAAAAAAAAAAAAAAAAAAAAAAAAAAAAAAAAAAAAAAAAAAAAAAAAAAAAAAAAAAAAAAAAAAAAAAAAAAAAAAAAAAAAAAAAAAAAAAAAAAAAAAAAAAAAAAAAAAAAAAAAAAAAAAAAAAAAAAAAAAAAAAAAAAAAAAAAAAAAAAAAAAAAAAAAAAAAAAAAAAAAAAAAAAAAAAAAAAAAAAAAAAAAAAAAAAAAAAAAAAAAAAAAAAAAAAAAAAAAAAAAAAAAAAAAAAAAAAAAAAAAAAAAAAAAAAAAAAAAAAAAAAAAAAAAAAAAAAAAAAAAAAAAAAAAAAAAAAAAAAAAAAAAAAAAAAAAAAAAAAAAAAAAAAAAAAAAAAAAAAAAAAAAAAAAAAAAAAAAAAAAAAAAAAAAAAAAAAAAAAAAAAAAAAAAAAAAAAAAAAAAAAAAAAAAAAAAAAAAAAAAAAAAAAAAAAAAAAAAAAAAAAAAAAAAAAAAAAAAAAAAAAAAAAAAAAAAAAAAAAAAAAAAAAAAAAAAAAAAAAAAAAAAAAAAAAAAAAAAAAAAAAAAAAAAAAAAAAAAAAAAAAAAAAAAAAAAAAAAAAAAAAAAAAAAAAAAAAAAAAAAAAAAAAAAAAAAAAAAAAAAAAAAAAAAAAAAAAAAAAAAAAAAAAAAAAAAAAAAAAAAAAAAAAAAAAAAAAAAAAAAAAAAAAAAAAAAAAAAAAAAAAAAAAAAAAAAAAAAAAAAAAAAAAAAAAAAAAAAAAAAAAAAAAAAAAAAAAAAAAAAAAAAAAAAAAAAAAAAAAAAAAAAAAAAAAAAAAAAAAAAAAAAAAAAAAAAAAAAAAAAAAAAAAAAAAAAAAAAAAAAAAAAAAAAAAAAAAAAAAAAAAAAAAAAAAAAAAAAAAAAAAAAAAAAAAAAAAAAAAAAAAAAAAAAAAAAAAAAAAAAAAAAAAAAAAAAAAAAAAAAAAAAAAAAAAAAAAAAAAAAAAAAAAAAAAAAAAAAAAAAAAAAAAAAAAAAAAAAAAAAAAAAAAAAAAAAAAAAAAAAAAAAAAAAAAAAAAAAAAAAAAAAAAAAAAAAAAAAAAAAAAAAAAAAAAAAAAAAAAAAAAAAAAAAAAAAAAAAAAAAAAAAAAAAAAAAAAAAAAAAAAAAAAAAAAAAAAAAAAAAAAAAAAAAAAAAAAAAAAAAAAAAAAAAAAAAAAAAAAAAAAAAAAAAAAAAAAAAAAAAAAAAAAAAAAAAAAAAAAAAAAAAAAAAAAAAAAAAAAAAAAAAAAAAAAAAAAAAAAAAAAAAAAAAAAAAAAAAAAAAAAAAAAAAAAAAAAAAAAAAAAAAAAAAAAAAAAAAAAAAAAAAAAAAAAAAAAAAAAAAAAAAAAAAAAAAAAAAAAAAAAAAAAAAAAAAAAAAAAAAAAAAAAAAAAAAAAAAAAAAAAAAAAAAAAAAAAAAAAAAAAAAAAAAAAAAAAAAAAAAAAAAAAAAAAAAAAAAAAAAAAAAAAAAAAAAAAAAAAAAAAAAAAAAAAAAAAAAAAAAAAAAAAAAAAAAAAAAAAAAAAAAAAAAAAAAAAAAAAAAAAAAAAAAAAAAAAAAAAAAAAAAAAAAAAAAAAAAAAAAAAAAAAAAAAAAAAAAAAAAAAAAAAAAAAAAAAAAAAAAAAAAAAAAAAAAAAAAAAAAAAAAAAAAAAAAAAAAAAAAAAAAAAAAAAAAAAAAAAAAAAAAAAAAAAAAAAAAAAAAAAAAAAAAAAAAAAAAAAAAAAAAAAAAAAAAAAAAAAAAAAAAAAAAAAAAAAAAAAAAAAAAAAAAAAAAAAAAAAAAAAAAAAAAAAAAAAAAAAAAAAAAAAAAAAAAAAAAAAAAAAAAAAAAAAAAAAAAAAAAAAAAAAAAAAAAAAAAAAAAAAAAAAAAAAAAAAAAAAAAAAAAAAAAAAAAAAAAAAAAAAAAAAAAAAAAAAAAAAAAAAAAAAAAAAAAAAAAAAAAAAAAAAAAAAAAAAAAAAAAAAAAAAAAAAAAAAAAAAAAAAAAAAAAAAAAAAAAAAAAAAAAAAAAAAAAAAAAAAAAAAAAAAAAAAAAAAAAAAAAAAAAAAAAAAAAAAAAAAAAAAAAAAAAAAAAAAAAAAAAAAAAAAAAAAAAAAAAAAAAAAAAAAAAAAAAAAAAAAAAAAAAAAAAAAAAAAAAAAAAAAAAAAAAAAAAAAAAAAAAAAAAAAAAAAAAAAAAAAAAAAAAAAAAAAAAAAAAAAAAAAAAAAAAAAAAAAAAAAAAAAAAAAAAAAAAAAAAAAAAAAAAAAAAAAAAAAAAAAAAAAAAAAAAAAAAAAAAAAAAAAAAAAAAAAAAAAAAAAAAAAAAAAAAAAAAAAAAAAAAAAAAAAAAAAAAAAAAAAAAAAAAAAAAAAAAAAAAAAAAAAAAAAAAAAAAAAAAAAAAAAAAAAAAAAAAAAAAAAAAAAAAAAAAAAAAAAAAAAAAAAAAAAAAAAAAAAAAAAAAAAAAAAAAAAAAAAAAAAAAAAAAAAAAAAAAAAAAAAAAAAAAAAAAAAAAAAAAAAAAAAAAAAAAAAAAAAAAAAAAAAAAAAAAAAAAAAAAAAAAAAAAAAAAAAAAAAAAAAAAAAAAAAAAAAAAAAAAAAAAAAAAAAAAAAAAAAAAAAAAAAAAAAAAAAAAAAAAAAAAAAAAAAAAAAAAAAAAAAAAAAAAAAAAAAAAAAAAAAAAAAAAAAAAAAAAAAAAAAAAAAAAAAAAAAAAAAAAAAAAAAAAAAAAAAAAAAAAAAAAAAAAAAAAAAAAAAAAAAAAAAAAAAAAAAAAAAAAAAAAAAAAAAAAAAAAAAAAAAAAAAAAAAAAAAAAAAAAAAAAAAAAAAAAAAAAAAAAAAAAAAAAAAAAAAAAAAAAAAAAAAAAAAAAAAAAAAAAAAAAAAAAAAAAAAAAAAAAAAAAAAAAAAAAAAAAAAAAAAAAAAAAAAAAAAAAAAAAAAAAAAAAAAAAAAAAAAAAAAAAAAAAAAAAAAAAAAAAAAAAAAAAAAAAAAAAAAAAAAAAAAAAAAAAAAAAAAAAAAAAAAAAAAAAAAAAAAAAAAAAAAAAAAAAAAAAAAAAAAAAAAAAAAAAAAAAAAAAAAAAAAAAAAAAAAAAAAAAAAAAAAAAAAAAAAAAAAAAAAAAAAAAAAAAAAAAAAAAAAAAAAAAAAAAAAAAAAAAAAAAAAAAAAAAAAAAAAAAAAAAAAAAAAAAAAAAAAAAAAAAAAAAAAAAAAAAAAAAAAAAAAAAAAAAAAAAAAAAAAAAAAAAAAAAAAAAAAAAAAAAAAAAAAAAAAAAAAAAAAAAAAAAAAAAAAAAAAAAAAAAAAAAAAAAAAAAAAAAAAAAAAAAAAAAAAAAAAAAAAAAAAAAAAAAAAAAAAAAAAAAAAAAAAAAAAAAAAAAAAAAAAAAAAAAAAAAAAAAAAAAAAAAAAAAAAAAAAAAAAAAAAAAAAAAAAAAAAAAAAAAAAAAAAAAAAAAAAAAAAAAAAAAAAAAAAAAAAAAAAAAAAAAAAAAAAAAAAAAAAAAAAAAAAAAAAAAAAAAAAAAAAAAAAAAAAAAAAAAAAAAAAAAAAAAAAAAAAAAAAAAAAAAAAAAAAAAAAAAAAAAAAAAAAAAAAAAAAAAAAAAAAAAAAAAAAAAAAAAAAAAAAAAAAAAAAAAAAAAAAAAAAAAAAAAAAAAAAAAAAAAAAAAAAAAAAAAAAAAAAAAAAAAAAAAAAAAAAAAAAAAAAAAAAAAAAAAAAAAAAAAAAAAAAAAAAAAAAAAAAAAAAAAAAAAAAAAAAAAAAAAAAAAAAAAAAAAAAAAAAAAAAAAAAAAAAAAAAAAAAAAAAAAAAAAAAAAAAAAAAAAAAAAAAAAAAAAAAAAAAAAAAAAAAAAAAAAAAAAAAAAAAAAAAAAAAAAAAAAAAAAAAAAAAAAAAAAAAAAAAAAAAAAAAAAAAAAAAAAAAAAAAAAAAAAAAAAAAAAAAAAAAAAAAAAAAAAAAAAAAAAAAAAAAAAAAAAAAAAAAAAAAAAAAAAAAAAAAAAAAAAAAAAAAAAAAAAAAAAAAAAAAAAAAAAAAAAAAAAAAAAAAAAAAAAAAAAAAAAAAAAAAAAAAAAAAAAAAAAAAAAAAAAAAAAAAAAAAAAAAAAAAAAAAAAAAAAAAAAAAAAAAAAAAAAAAAAAAAAAAAAAAAAAAAAAAAAAAAAAAAAAAAAAAAAAAAAAAAAAAAAAAAAAAAAAAAAAAAAAAAAAAAAAAAAAAAAAAAAAAAAAAAAAAAAAAAAAAAAAAAAAAAAAAAAAAAAAAAAAAAAAAAAAAAAAAAAAAAAAAAAAAAAAAAAAAAAAAAAAAAAAAAAAAAAAAAAAAAAAAAAAAAAAAAAAAAAAAAAAAAAAAAAAAAAAAAAAAAAAAAAAAAAAAAAAAAAAAAAAAAAAAAAAAAAAAAAAAAAAAAAAAAAAAAAAAAAAAAAAAAAAAAAAAAAAAAAAAAAAAAAAAAAAAAAAAAAAAAAAAAAAAAAAAAAAAAAAAAAAAAAAAAAAAAAAAAAAAAAAAAAAAAAAAAAAAAAAAAAAAAAAAAAAAAAAAAAAAAAAAAAAAAAAAAAAAAAAAAAAAAAAAAAAAAAAAAAAAAAAAAAAAAAAAAAAAAAAAAAAAAAAAAAAAAAAAAAAAAAAAAAAAAAAAAAAAAAAAAAAAAAAAAAAAAAAAAAAAAAAAAAAAAAAAAAAAAAAAAAAAAAAAAAAAAAAAAAAAAAAAAAAAAAAAAAAAAAAAAAAAAAAAAAAAAAAAAAAAAAAAAAAAAAAAAAAAAAAAAAAAAAAAAAAAAAAAAAAAAAAAAAAAAAAAAAAAAAAAAAAAAAAAAAAAAAAAAAAAAAAAAAAAAAAAAAAAAAAAAAAAAAAAAAAAAAAAAAAAAAAAAAAAAAAAAAAAAAAAAAAAAAAAAAAAAAAAAAAAAAAAAAAAAAAAAAAAAAAAAAAAAAAAAAAAAAAAAAAAAAAAAAAAAAAAAAAAAAAAAAAAAAAAAAAAAAAAAAAAAAAAAAAAAAAAAAAAAAAAAAAAAAAAAAAAAAAAAAAAAAAAAAAAAAAAAAAAAAAAAAAAAAAAAAAAAAAAAAAAAAAAAAAAAAAAAAAAAAAAAAAAAAAAAAAAAAAAAAAAAAAAAAAAAAAAAAAAAAAAAAAAAAAAAAAAAAAAAAAAAAAAAAAAAAAAAAAAAAAAAAAAAAAAAAAAAAAAAAAAAAAAAAAAAAAAAAAAAAAAAAAAAAAAAAAAAAAAAAAAAAAAAAAAAAAAAAAAAAAAAAAAAAAAAAAAAAAAAAAAAAAAAAAAAAAAAAAAAAAAAAAAAAAAAAAAAAAAAAAAAAAAAAAAAAAAAAAAAAAAAAAAAAAAAAAAAAAAAAAAAAAAAAAAAAAAAAAAAAAAAAAAAAAAAAAAAAAAAAAAAAAAAAAAAAAAAAAAAAAAAAAAAAAAAAAAAAAAAAAAAAAAAAAAAAAAAAAAAAAAAAAAAAAAAAAAAAAAAAAAAAAAAAAAAAAAAAAAAAAAAAAAAAAAAAAAAAAAAAAAAAAAAAAAAAAAAAAAAAAAAAAAAAAAAAAAAAAAAAAAAAAAAAAAAAAAAAAAAAAAAAAAAAAAAAAAAAAAAAAAAAAAAAAAAAAAAAAAAAAAAAAAAAAAAAAAAAAAAAAAAAAAAAAAAAAAAAAAAAAAAAAAAAAAAAAAAAAAAAAAAAAAAAAAAAAAAAAAAAAAAAAAAAAAAAAAAAAAAAAAAAAAAAAAAAAAAAAAAAAAAAAAAAAAAAAAAAAAAAAAAAAAAAAAAAAAAAAAAAAAAAAAAAAAAAAAAAAAAAAAAAAAAAAAAAAAAAAAAAAAAAAAAAAAAAAAAAAAAAAAAAAAAAAAAAAAAAAAAAAAAAAAAAAAAAAAAAAAAAAAAAAAAAAAAAAAAAAAAAAAAAAAAAAAAAAAAAAAAAAAAAAAAAAAAAAAAAAAAAAAAAAAAAAAAAAAAAAAAAAAAAAAAAAAAAAAAAAAAAAAAAAAAAAAAAAAAAAAAAAAAAAAAAAAAAAAAAAAAAAAAAAAAAAAAAAAAAAAAAAAAAAAAAAAAAAAAAAAAAAAAAAAAAAAAAAAAAAAAAAAAAAAAAAAAAAAAAAAAAAAAAAAAAAAAAAAAAAAAAAAAAAAAAAAAAAAAAAAAAAAAAAAAAAAAAAAAAAAAAAAAAAAAAAAAAAAAAAAAAAAAAAAAAAAAAAAAAAAAAAAAAAAAAAAAAAAAAAAAAAAAAAAAAAAAAAAAAAAAAAAAAAAAAAAAAAAAAAAAAAAAAAAAAAAAAAAAAAAAAAAAAAAAAAAAAAAAAAAAAAAAAAAAAAAAAAAAAAAAAAAAAAAAAAAAAAAAAAAAAAAAAAAAAAAAAAAAAAAAAAAAAAAAAAAAAAAAAAAAAAAAAAAAAAAAAAAAAAAAAAAAAAAAAAAAAAAAAAAAAAAAAAAAAAAAAAAAAAAAAAAAAAAAAAAAAAAAAAAAAAAAAAAAAAAAAAAAAAAAAAAAAAAAAAAAAAAAAAAAAAAAAAAAAAAAAAAAAAAAAAAAAAAAAAAAAAAAAAAAAAAAAAAAAAAAAAAAAAAAAAAAAAAAAAAAAAAAAAAAAAAAAAAAAAAAAAAAAAAAAAAAAAAAAAAAAAAAAAAAAAAAAAAAAAAAAAAAAAAAAAAAAAAAAAAAAAAAAAAAAAAAAAAAAAAAAAAAAAAAAAAAAAAAAAAAAAAAAAAAAAAAAAAAAAAAAAAAAAAAAAAAAAAAAAAAAAAAAAAAAAAAAAAAAAAAAAAAAAAAAAAAAAAAAAAAAAAAAAAAAAAAAAAAAAAAAAAAAAAAAAAAAAAAAAAAAAAAAAAAAAAAAAAAAAAAAAAAAAAAAAAAAAAAAAAAAAAAAAAAAAAAAAAAAAAAAAAAAAAAAAAAAAAAAAAAAAAAAAAAAAAAAAAAAAAAAAAAAAAAAAAAAAAAAAAAAAAAAAAAAAAAAAAAAAAAAAAAAAAAAAAAAAAAAAAAAAAAAAAAAAAAAAAAAAAAAAAAAAAAAAAAAAAAAAAAAAAAAAAAAAAAAAAAAAAAAAAAAAAAAAAAAAAAAAAAAAAAAAAAAAAAAAAAAAAAAAAAAAAAAAAAAAAAAAAAAAAAAAAAAAAAAAAAAAAAAAAAAAAAAAAAAAAAAAAAAAAAAAAAAAAAAAAAAAAAAAAAAAAAAAAAAAAAAAAAAAAAAAAAAAAAAAAAAAAAAAAAAAAAAAAAAAAAAAAAAAAAAAAAAAAAAAAAAAAAAAAAAAAAAAAAAAAAAAAAAAAAAAAAAAAAAAAAAAAAAAAAAAAAAAAAAAAAAAAAAAAAAAAAAAAAAAAAAAAAAAAAAAAAAAAAAAAAAAAAAAAAAAAAAAAAAAAAAAAAAAAAAAAAAAAAAAAAAAAAAAAAAAAAAAAAAAAAAAAAAAAAAAAAAAAAAAAAAAAAAAAAAAAAAAAAAAAAAAAAAAAAAAAAAAAAAAAAAAAAAAAAAAAAAAAAAAAAAAAAAAAAAAAAAAAAAAAAAAAAAAAAAAAAAAAAAAAAAAAAAAAAAAAAAAAAAAAAAAAAAAAAAAAAAAAAAAAAAAAAAAAAAAAAAAAAAAAAAAAAAAAAAAAAAAAAAAAAAAAAAAAAAAAAAAAAAAAAAAAAAAAAAAAAAAAAAAAAAAAAAAAAAAAAAAAAAAAAAAAAAAAAAAAAAAAAAAAAAAAAAAAAAAAAAAAAAAAAAAAAAAAAAAAAAAAAAAAAAAAAAAAAAAAAAAAAAAAAAAAAAAAAAAAAAAAAAAAAAAAAAAAAAAAAAAAAAAAAAAAAAAAAAAAAAAAAAAAAAAAAAAAAAAAAAAAAAAAAAAAAAAAAAAAAAAAAAAAAAAAAAAAAAAAAAAAAAAAAAAAAAAAAAAAAAAAAAAAAAAAAAAAAAAAAAAAAAAAAAAAAAAAAAAAAAAAAAAAAAAAAAAAAAAAAAAAAAAAAAAAAAAAAAAAAAAAAAAAAAAAAAAAAAAAAAAAAAAAAAAAAAAAAAAAAAAAAAAAAAAAAAAAAAAAAAAAAAAAAAAAAAAAAAAAAAAAAAAAAAAAAAAAAAAAAAAAAAAAAAAAAAAAAAAAAAAAAAAAAAAAAAAAAAAAAAAAAAAAAAAAAAAAAAAAAAAAAAAAAAAAAAAAAAAAAAAAAAAAAAAAAAAAAAAAAAAAAAAAAAAAAAAAAAAAAAAAAAAAAAAAAAAAAAAAAAAAAAAAAAAAAAAAAAAAAAAAAAAAAAAAAAAAAAAAAAAAAAAAAAAAAAAAAAAAAAAAAAAAAAAAAAAAAAAAAAAAAAAAAAAAAAAAAAAAAAAAAAAAAAAAAAAAAAAAAAAAAAAAAAAAAAAAAAAAAAAAAAAAAAAAAAAAAAAAAAAAAAAAAAAAAAAAAAAAAAAAAAAAAAAAAAAAAAAAAAAAAAAAAAAAAAAAAAAAAAAAAAAAAAAAAAAAAAAAAAAAAAAAAAAAAAAAAAAAAAAAAAAAAAAAAAAAAAAAAAAAAAAAAAAAAAAAAAAAAAAAAAAAAAAAAAAAAAAAAAAAAAAAAAAAAAAAAAAAAAAAAAAAAAAAAAAAAAAAAAAAAAAAAAAAAAAAAAAAAAAAAAAAAAAAAAAAAAAAAAAAAAAAAAAAAAAAAAAAAAAAAAAAAAAAAAAAAAAAAAAAAAAAAAAAAAAAAAAAAAAAAAAAAAAAAAAAAAAAAAAAAAAAAAAAAAAAAAAAAAAAAAAAAAAAAAAAAAAAAAAAAAAAAAAAAAAAAAAAAAAAAAAAAAAAAAAAAAAAAAAAAAAAAAAAAAAAAAAAAAAAAAAAAAAAAAAAAAAAAAAAAAAAAAAAAAAAAAAAAAAAAAAAAAAAAAAAAAAAAAAAAAAAAAAAAAAAAAAAAAAAAAAAAAAAAAAAAAAAAAAAAAAAAAAAAAAAAAAAAAAAAAAAAAAAAAAAAAAAAAAAAAAAAAAAAAAAAAAAAAAAAAAAAAAAAAAAAAAAAAAAAAAAAAAAAAAAAAAAAAAAAAAAAAAAAAAAAAAAAAAAAAAAAAAAAAAAAAAAAAAAAAAAAAAAAAAAAAAAAAAAAAAAAAAAAAAAAAAAAAAAAAAAAAAAAAAAAAAAAAAAAAAAAAAAAAAAAAAAAAAAAAAAAAAAAAAAAAAAAAAAAAAAAAAAAAAAAAAAAAAAAAAAAAAAAAAAAAAAAAAAAAAAAAAAAAAAAAAAAAAAAAAAAAAAAAAAAAAAAAAAAAAAAAAAAAAAAAAAAAAAAAAAAAAAAAAAAAAAAAAAAAAAAAAAAAAAAAAAAAAAAAAAAAAAAAAAAAAAAAAAAAAAAAAAAAAAAAAAAAAAAAAAAAAAAAAAAAAAAAAAAAAAAAAAAAAAAAAAAAAAAAAAAAAAAAAAAAAAAAAAAAAAAAAAAAAAAAAAAAAAAAAAAAAAAAAAAAAAAAAAAAAAAAAAAAAAAAAAAAAAAAAAAAAAAAAAAAAAAAAAAAAAAAAAAAAAAAAAAAAAAAAAAAAAAAAAAAAAAAAAAAAAAAAAAAAAAAAAAAAAAAAAAAAAAAAAAAAAAAAAAAAAAAAAAAAAAAAAAAAAAAAAAAAAAAAAAAAAAAAAAAAAAAAAAAAAAAAAAAAAAAAAAAAAAAAAAAAAAAAAAAAAAAAAAAAAAAAAAAAAAAAAAAAAAAAAAAAAAAAAAAAAAAAAAAAAAAAAAAAAAAAAAAAAAAAAAAAAAAAAAAAAAAAAAAAAAAAAAAAAAAAAAAAAAAAAAAAAAAAAAAAAAAAAAAAAAAAAAAAAAAAAAAAAAAAAAAAAAAAAAAAAAAAAAAAAAAAAAAAAAAAAAAAAAAAAAAAAAAAAAAAAAAAAAAAAAAAAAAAAAAAAAAAAAAAAAAAAAAAAAAAAAAAAAAAAAAAAAAAAAAAAAAAAAAAAAAAAAAAAAAAAAAAAAAAAAAAAAAAAAAAAAAAAAAAAAAAAAAAAAAAAAAAAAAAAAAAAAAAAAAAAAAAAAAAAAAAAAAAAAAAAAAAAAAAAAAAAAAAAAAAAAAAAAAAAAAAAAAAAAAAAAAAAAAAAAAAAAAAAAAAAAAAAAAAAAAAAAAAAAAAAAAAAAAAAAAAAAAAAAAAAAAAAAAAAAAAAAAAAAAAAAAAAAAAAAAAAAAAAAAAAAAAAAAAAAAAAAAAAAAAAAAAAAAAAAAAAAAAAAAAAAAAAAAAAAAAAAAAAAAAAAAAAAAAAAAAAAAAAAAAAAAAAAAAAAAAAAAAAAAAAAAAAAAAAAAAAAAAAAAAAAAAAAAAAAAAAAAAAAAAAAAAAAAAAAAAAAAAAAAAAAAAAAAAAAAAAAAAAAAAAAAAAAAAAAAAAAAAAAAAAAAAAAAAAAAAAAAAAAAAAAAAAAAAAAAAAAAAAAAAAAAAAAAAAAAAAAAAAAAAAAAAAAAAAAAAAAAAAAAAAAAAAAAAAAAAAAAAAAAAAAAAAAAAAAAAAAAAAAAAAAAAAAAAAAAAAAAAAAAAAAAAAAAAAAAAAAAAAAAAAAAAAAAAAAAAAAAAAAAAAAAAAAAAAAAAAAAAAAAAAAAAAAAAAAAAAAAAAAAAAAAAAAAAAAAAAAAAAAAAAAAAAAAAAAAAAAAAAAAAAAAAAAAAAAAAAAAAAAAAAAAAAAAAAAAAAAAAAAAAAAAAAAAAAAAAAAAAAAAAAAAAAAAAAAAAAAAAAAAAAAAAAAAAAAAAAAAAAAAAAAAAAAAAAAAAAAAAAAAAAAAAAAAAAAAAAAAAAAAAAAAAAAAAAAAAAAAAAAAAAAAAAAAAAAAAAAAAAAAAAAAAAAAAAAAAAAAAAAAAAAAAAAAAAAAAAAAAAAAAAAAAAAAAAAAAAAAAAAAAAAAAAAAAAAAAAAAAAAAAAAAAAAAAAAAAAAAAAAAAAAAAAAAAAAAAAAAAAAAAAAAAAAAAAAAAAAAAAAAAAAAAAAAAAAAAAAAAAAAAAAAAAAAAAAAAAAAAAAAAAAAAAAAAAAAAAAAAAAAAAAAAAAAAAAAAAAAAAAAAAAAAAAAAAAAAAAAAAAAAAAAAAAAAAAAAAAAAAAAAAAAAAAAAAAAAAAAAAAAAAAAAAAAAAAAAAAAAAAAAAAAAAAAAAAAAAAAAAAAAAAAAAAAAAAAAAAAAAAAAAAAAAAAAAAAAAAAAAAAAAAAAAAAAAAAAAAAAAAAAAAAAAAAAAAAAAAAAAAAAAAAAAAAAAAAAAAAAAAAAAAAAAAAAAAAAAAAAAAAAAAAAAAAAAAAAAAAAAAAAAAAAAAAAAAAAAAAAAAAAAAAAAAAAAAAAAAAAAAAAAAAAAAAAAAAAAAAAAAAAAAAAAAAAAAAAAAAAAAAAAAAAAAAAAAAAAAAAAAAAAAAAAAAAAAAAAAAAAAAAAAAAAAAAAAAAAAAAAAAAAAAAAAAAAAAAAAAAAAAAAAAAAAAAAAAAAAAAAAAAAAAAAAAAAAAAAAAAAAAAAAAAAAAAAAAAAAAAAAAAAAAAAAAAAAAAAAAAAAAAAAAAAAAAAAAAAAAAAAAAAAAAAAAAAAAAAAAAAAAAAAAAAAAAAAAAAAAAAAAAAAAAAAAAAAAAAAAAAAAAAAAAAAAAAAAAAAAAAAAAAAAAAAAAAAAAAAAAAAAAAAAAAAAAAAAAAAAAAAAAAAAAAAAAAAAAAAAAAAAAAAAAAAAAAAAAAAAAAAAAAAAAAAAAAAAAAAAAAAAAAAAAAAAAAAAAAAAAAAAAAAAAAAAAAAAAAAAAAAAAAAAAAAAAAAAAAAAAAAAAAAAAAAAAAAAAAAAAAAAAAAAAAAAAAAAAAAAAAAAAAAAAAAAAAAAAAAAAAAAAAAAAAAAAAAAAAAAAAAAAAAAAAAAAAAAAAAAAAAAAAAAAAAAAAAAAAAAAAAAAAAAAAAAAAAAAAAAAAAAAAAAAAAAAAAAAAAAAAAAAAAAAAAAAAAAAAAAAAAAAAAAAAAAAAAAAAAAAAAAAAAAAAAAAAAAAAAAAAAAAAAAAAAAAAAAAAAAAAAAAAAAAAAAAAAAAAAAAAAAAAAAAAAAAAAAAAAAAAAAAAAAAAAAAAAAAAAAAAAAAAAAAAAAAAAAAAAAAAAAAAAAAAAAAAAAAAAAAAAAAAAAAAAAAAAAAAAAAAAAAAAAAAAAAAAAAAAAAAAAAAAAAAAAAAAAAAAAAAAAAAAAAAAAAAAAAAAAAAAAAAAAAAAAAAAAAAAAAAAAAAAAAAAAAAAAAAAAAAAAAAAAAAAAAAAAAAAAAAAAAAAAAAAAAAAAAAAAAAAAAAAAAAAAAAAAAAAAAAAAAAAAAAAAAAAAAAAAAAAAAAAAAAAAAAAAAAAAAAAAAAAAAAAAAAAAAAAAAAAAAAAAAAAAAAAAAAAAAAAAAAAAAAAAAAAAAAAAAAAAAAAAAAAAAAAAAAAAAAAAAAAAAAAAAAAAAAAAAAAAAAAAAAAAAAAAAAAAAAAAAAAAAAAAAAAAAAAAAAAAAAAAAAAAAAAAAAAAAAAAAAAAAAAAAAAAAAAAAAAAAAAAAAAAAAAAAAAAAAAAAAAAAAAAAAAAAAAAAAAAAAAAAAAAAAAAAAAAAAAAAAAAAAAAAAAAAAAAAAAAAAAAAAAAAAAAAAAAAAAAAAAAAAAAAAAAAAAAAAAAAAAAAAAAAAAAAAAAAAAAAAAAAAAAAAAAAAAAAAAAAAAAAAAAAAAAAAAAAAAAAAAAAAAAAAAAAAAAAAAAAAAAAAAAAAAAAAAAAAAAAAAAAAAAAAAAAAAAAAAAAAAAAAAAAAAAAAAAAAAAAAAAAAAAAAAAAAAAAAAAAAAAAAAAAAAAAAAAAAAAAAAAAAAAAAAAAAAAAAAAAAAAAAAAAAAAAAAAAAAAAAAAAAAAAAAAAAAAAAAAAAAAAAAAAAAAAAAAAAAAAAAAAAAAAAAAAAAAAAAAAAAAAAAAAAAAAAAAAAAAAAAAAAAAAAAAAAAAAAAAAAAAAAAAAAAAAAAAAAAAAAAAAAAAAAAAAAAAAAAAAAAAAAAAAAAAAAAAAAAAAAAAAAAAAAAAAAAAAAAAAAAAAAAAAAAAAAAAAAAAAAAAAAAAAAAAAAAAAAAAAAAAAAAAAAAAAAAAAAAAAAAAAAAAAAAAAAAAAAAAAAAAAAAAAAAAAAAAAAAAAAAAAAAAAAAAAAAAAAAAAAAAAAAAAAAAAAAAAAAAAAAAAAAAAAAAAAAAAAAAAAAAAAAAAAAAAAAAAAAAAAAAAAAAAAAAAAAAAAAAAAAAAAAAAAAAAAAAAAAAAAAAAAAAAAAAAAAAAAAAAAAAAAAAAAAAAAAAAAAAAAAAAAAAAAAAAAAAAAAAAAAAAAAAAAAAAAAAAAAAAAAAAAAAAAAAAAAAAAAAAAAAAAAAAAAAAAAAAAAAAAAAAAAAAAAAAAAAAAAAAAAAAAAAAAAAAAAAAAAAAAAAAAAAAAAAAAAAAAAAAAAAAAAAAAAAAAAAAAAAAAAAAAAAAAAAAAAAAAAAAAAAAAAAAAAAAAAAAAAAAAAAAAAAAAAAAAAAAAAAAAAAAAAAAAAAAAAAAAAAAAAAAAAAAAAAAAAAAAAAAAAAAAAAAAAAAAAAAAAAAAAAAAAAAAAAAAAAAAAAAAAAAAAAAAAAAAAAAAAAAAAAAAAAAAAAAAAAAAAAAAAAAAAAAAAAAAAAAAAAAAAAAAAAAAAAAAAAAAAAAAAAAAAAAAAAAAAAAAAAAAAAAAAAAAAAAAAAAAAAAD2WQIAaM8ijuZUeyQN0GUpyG4hNF95v3OXjlzdcr0CMWSTtKZNR1c+Crqt4QroUwY/I4LDNEXXjkGMFBwOBMQ1NfU+C1ruZQHSShcH5KWCVJO+76lfvkJutDNGvuoxiibPv8QEeY7D+z7cKCXo9MsqtnSK+aykG/ysSIGCYc/8Va4vQCZYTkXonn6uf0V7vvUEeD7/4pHhI4Fb0k/rtdXpusxtcpE2Cv/7WE8mm/PHAszty/drYKY26pTjmAxBTkbpfkwOr/CblQ+9dvQiYtRil2VGz7eQPidYvUfx8G4iC4RpitdFykxOJxBzUEFhmx/5Ps4YBRjx7mBMABH03FuiRjPDLkejC6rAdG3xVfF1CA7zmiI04bawCwx36wb8Qn1K6aF2k8eApEC5fWnV3/Li6C4+rhE7kf2OCspbAVbYtQyErREXFpE4TtmhGAz58UWd+JcGPB8sQiE/EVrfDbdz5Lye1JGEXWDCePOxt81fIaRUMRMOrfLLSFh5uAmG/lBpLwIwQkkv8krZfpi3SGZFZuY9IUV75IHtqyH3smcCNLLndF5B9mo2FtZualbb0eG1rcOO+BBKyDS/P/iBaEmmzdi2CK7g8aC245E0A1XXzw7Aznfq5yf3lE1gCrg51zH2JVOxGymB7CxUXswgTvql9wYeTT8/iJn22uhxigAID7p7pGw=</manifest><ContainsAiGeneratedContent>Yes</ContainsAiGeneratedContent></metadata><defs><g></g><clipPath id="669fdfeef5"><rect x="0" width="391" y="0" height="92"></rect></clipPath></defs><g transform="matrix(0.324667, 0, 0, 0.324667, 48.70005, 48.700059)"><image x="0" y="0" width="1200" height="1200" preserveAspectRatio="xMidYMid meet"></image></g><g transform="matrix(1, 0, 0, 1, 48, 39)"><g clip-path="url(#669fdfeef5)"><g fill="#000000" fill-opacity="0"><g transform="translate(0.70005, 68.828619)"><g><path d="M 32.625 -43.335938 L 3.957031 -43.335938 L 3.957031 0 L 9.070312 0 L 9.070312 -20.269531 L 30.1875 -20.269531 L 30.1875 -24.894531 L 9.070312 -24.894531 L 9.070312 -38.710938 L 32.625 -38.710938 Z M 32.625 -43.335938 "></path></g></g></g><g fill="#000000" fill-opacity="0"><g transform="translate(28.75839, 68.828619)"><g><path d="M 41.449219 0 L 23.921875 -43.335938 L 18.199219 -43.335938 L 0.914062 0 L 6.269531 0 L 11.261719 -12.597656 L 30.980469 -12.597656 L 36.03125 0 Z M 13.269531 -17.710938 C 15.15625 -22.460938 18.503906 -31.101562 21 -37.796875 C 23.617188 -31.101562 27.023438 -22.460938 28.910156 -17.773438 L 29.15625 -17.226562 L 13.085938 -17.226562 Z M 13.269531 -17.710938 "></path></g></g></g><g fill="#000000" fill-opacity="0"><g transform="translate(67.468015, 68.828619)"><g><path d="M 22.15625 0.972656 C 31.042969 0.972656 39.746094 -4.441406 40.839844 -15.765625 L 35.726562 -15.765625 C 34.632812 -7.425781 28.300781 -3.710938 22.15625 -3.710938 C 13.390625 -3.710938 7.488281 -10.347656 7.488281 -21.667969 C 7.488281 -32.988281 13.390625 -39.625 22.15625 -39.625 C 28 -39.625 33.476562 -36.945312 35.421875 -29.398438 L 40.597656 -29.398438 C 38.40625 -39.867188 30.675781 -44.308594 22.15625 -44.308594 C 10.589844 -44.308594 2.128906 -35.726562 2.128906 -21.667969 C 2.128906 -7.609375 10.589844 0.972656 22.15625 0.972656 Z M 22.15625 0.972656 "></path></g></g></g><g fill="#000000" fill-opacity="0"><g transform="translate(110.133897, 68.828619)"><g><path d="M 34.085938 -43.335938 L 3.957031 -43.335938 L 3.957031 0 L 33.839844 0 L 33.839844 -4.625 L 9.070312 -4.625 L 9.070312 -20.269531 L 31.648438 -20.269531 L 31.648438 -24.894531 L 9.070312 -24.894531 L 9.070312 -38.710938 L 34.085938 -38.710938 Z M 34.085938 -43.335938 "></path></g></g></g><g fill="#000000" fill-opacity="0"><g transform="translate(145.739515, 68.828619)"><g></g></g></g><g fill="#000000" fill-opacity="0"><g transform="translate(157.303731, 68.828619)"><g><path d="M 46.074219 -21.972656 C 44.675781 -17.042969 43.214844 -11.625 41.996094 -6.453125 C 40.65625 -11.625 39.257812 -16.980469 37.859375 -22.09375 L 31.953125 -43.335938 L 26.234375 -43.335938 L 20.328125 -22.09375 C 18.929688 -16.980469 17.527344 -11.625 16.191406 -6.453125 C 14.972656 -11.625 13.511719 -17.042969 12.113281 -21.972656 L 6.207031 -43.335938 L 0.914062 -43.335938 L 13.207031 0 L 18.929688 0 L 25.136719 -22.09375 C 26.476562 -26.78125 27.875 -31.894531 29.09375 -36.761719 C 30.3125 -31.894531 31.710938 -26.78125 33.050781 -22.09375 L 39.257812 0 L 44.980469 0 L 57.273438 -43.335938 L 51.980469 -43.335938 Z M 46.074219 -21.972656 "></path></g></g></g><g fill="#000000" fill-opacity="0"><g transform="translate(209.403463, 68.828619)"><g><path d="M 41.449219 0 L 23.921875 -43.335938 L 18.199219 -43.335938 L 0.914062 0 L 6.269531 0 L 11.261719 -12.597656 L 30.980469 -12.597656 L 36.03125 0 Z M 13.269531 -17.710938 C 15.15625 -22.460938 18.503906 -31.101562 21 -37.796875 C 23.617188 -31.101562 27.023438 -22.460938 28.910156 -17.773438 L 29.15625 -17.226562 L 13.085938 -17.226562 Z M 13.269531 -17.710938 "></path></g></g></g><g fill="#000000" fill-opacity="0"><g transform="translate(250.547707, 68.828619)"><g><path d="M 37.128906 -43.335938 L 31.40625 -43.335938 L 25.441406 -34.816406 C 23.371094 -31.894531 21.425781 -29.03125 19.476562 -26.109375 C 17.589844 -28.972656 15.640625 -31.832031 13.632812 -34.753906 L 7.730469 -43.335938 L 1.765625 -43.335938 L 16.554688 -22.214844 L 0.914062 0 L 6.632812 0 L 13.207031 -9.375 C 15.398438 -12.476562 17.40625 -15.339844 19.417969 -18.382812 C 21.425781 -15.339844 23.433594 -12.417969 25.5625 -9.375 L 32.015625 0 L 37.980469 0 L 22.460938 -22.398438 Z M 37.128906 -43.335938 "></path></g></g></g><g fill="#000000" fill-opacity="0"><g transform="translate(289.440004, 68.828619)"><g><path d="M 9.070312 0 L 9.070312 -43.335938 L 3.957031 -43.335938 L 3.957031 0 Z M 9.070312 0 "></path></g></g></g><g fill="#000000" fill-opacity="0"><g transform="translate(302.464957, 68.828619)"><g><path d="M 33.355469 -28.726562 C 33.355469 -22.886719 33.355469 -14.851562 33.535156 -6.328125 C 31.164062 -10.53125 27.511719 -16.3125 24.527344 -21 L 10.164062 -43.335938 L 3.957031 -43.335938 L 3.957031 0 L 9.007812 0 L 9.007812 -14.609375 C 9.007812 -20.449219 9.007812 -28.484375 8.824219 -37.007812 C 11.199219 -32.804688 14.851562 -27.023438 17.832031 -22.335938 L 32.199219 0 L 38.40625 0 L 38.40625 -43.335938 L 33.355469 -43.335938 Z M 33.355469 -28.726562 "></path></g></g></g><g fill="#000000" fill-opacity="0"><g transform="translate(344.826535, 68.828619)"><g><path d="M 23.675781 -17.652344 L 37.492188 -17.652344 C 37.492188 -9.375 30.738281 -3.710938 22.703125 -3.710938 C 13.511719 -3.710938 7.488281 -10.652344 7.488281 -21.667969 C 7.488281 -32.683594 13.453125 -39.625 22.703125 -39.625 C 29.519531 -39.625 35.179688 -35.667969 36.335938 -29.15625 L 41.632812 -29.15625 C 40.171875 -38.164062 33.171875 -44.308594 22.703125 -44.308594 C 10.164062 -44.308594 2.128906 -35.121094 2.128906 -21.667969 C 2.128906 -8.21875 10.226562 0.972656 22.640625 0.972656 C 28.910156 0.972656 33.71875 -1.523438 36.824219 -5.84375 L 37.917969 0 L 42.117188 0 L 42.117188 -22.277344 L 23.675781 -22.277344 Z M 23.675781 -17.652344 "></path></g></g></g><g fill="#ffffff" fill-opacity="1"><g transform="translate(0.70005, 68.828619)"><g><path d="M 32.625 -42.765625 L 3.957031 -42.765625 L 3.957031 -43.335938 L 4.527344 -43.335938 L 4.527344 0 L 3.957031 0 L 3.957031 -0.570312 L 9.070312 -0.570312 L 9.070312 0 L 8.5 0 L 8.5 -20.839844 L 30.1875 -20.839844 L 30.1875 -20.269531 L 29.617188 -20.269531 L 29.617188 -24.894531 L 30.1875 -24.894531 L 30.1875 -24.324219 L 8.5 -24.324219 L 8.5 -39.28125 L 32.625 -39.28125 L 32.625 -38.710938 L 32.054688 -38.710938 L 32.054688 -43.335938 L 32.625 -43.335938 Z M 33.195312 -43.90625 L 33.195312 -38.140625 L 9.070312 -38.140625 L 9.070312 -38.710938 L 9.640625 -38.710938 L 9.640625 -24.894531 L 9.070312 -24.894531 L 9.070312 -25.464844 L 30.761719 -25.464844 L 30.761719 -19.699219 L 9.070312 -19.699219 L 9.070312 -20.269531 L 9.640625 -20.269531 L 9.640625 0.570312 L 3.386719 0.570312 L 3.386719 -43.90625 Z M 33.195312 -43.90625 "></path></g></g></g><g fill="#ffffff" fill-opacity="1"><g transform="translate(28.75839, 68.828619)"><g><path d="M 40.921875 0.214844 L 23.390625 -43.121094 L 23.921875 -43.335938 L 23.921875 -42.765625 L 18.199219 -42.765625 L 18.199219 -43.335938 L 18.730469 -43.125 L 1.441406 0.210938 L 0.914062 0 L 0.914062 -0.570312 L 6.269531 -0.570312 L 6.269531 0 L 5.738281 -0.210938 L 10.871094 -13.167969 L 31.367188 -13.167969 L 36.5625 -0.210938 L 36.03125 0 L 36.03125 -0.570312 L 41.449219 -0.570312 L 41.449219 0 Z M 42.296875 0.570312 L 35.644531 0.570312 L 30.449219 -12.386719 L 30.980469 -12.597656 L 30.980469 -12.027344 L 11.261719 -12.027344 L 11.261719 -12.597656 L 11.789062 -12.390625 L 6.65625 0.570312 L 0.0703125 0.570312 L 17.8125 -43.90625 L 24.304688 -43.90625 L 41.976562 -0.214844 Z M 12.738281 -17.921875 C 15.347656 -24.488281 17.921875 -31.179688 20.464844 -37.996094 L 20.984375 -39.394531 L 24.308594 -30.917969 L 29.441406 -17.984375 L 28.910156 -17.773438 L 29.433594 -18.003906 L 30.03125 -16.652344 L 12.261719 -16.652344 L 12.734375 -17.914062 Z M 13.804688 -17.511719 L 13.621094 -17.023438 L 13.085938 -17.226562 L 13.085938 -17.796875 L 29.15625 -17.796875 L 29.15625 -17.226562 L 28.632812 -16.992188 L 28.386719 -17.550781 L 23.246094 -30.503906 L 20.46875 -37.589844 L 21 -37.796875 L 21.535156 -37.597656 C 18.988281 -30.773438 16.410156 -24.074219 13.800781 -17.5 Z M 13.804688 -17.511719 "></path></g></g></g><g fill="#ffffff" fill-opacity="1"><g transform="translate(67.468015, 68.828619)"><g><path d="M 22.15625 0.402344 C 24.363281 0.402344 26.472656 0.0703125 28.492188 -0.589844 C 30.578125 -1.277344 32.433594 -2.277344 34.0625 -3.59375 C 35.78125 -4.984375 37.164062 -6.667969 38.203125 -8.640625 C 39.324219 -10.761719 40.015625 -13.15625 40.273438 -15.820312 L 40.839844 -15.765625 L 40.839844 -15.195312 L 35.726562 -15.195312 L 35.726562 -15.765625 L 36.292969 -15.691406 C 36.019531 -13.605469 35.425781 -11.738281 34.507812 -10.085938 C 33.65625 -8.546875 32.546875 -7.242188 31.191406 -6.164062 C 29.921875 -5.160156 28.488281 -4.398438 26.890625 -3.878906 C 25.375 -3.386719 23.792969 -3.140625 22.15625 -3.140625 C 19.890625 -3.140625 17.816406 -3.5625 15.933594 -4.40625 C 14.054688 -5.246094 12.441406 -6.46875 11.097656 -8.078125 C 9.742188 -9.699219 8.710938 -11.644531 8 -13.917969 C 7.277344 -16.238281 6.914062 -18.820312 6.914062 -21.667969 C 6.914062 -24.515625 7.277344 -27.097656 8 -29.417969 C 8.710938 -31.691406 9.742188 -33.636719 11.097656 -35.257812 C 12.441406 -36.867188 14.054688 -38.089844 15.933594 -38.929688 C 17.816406 -39.773438 19.890625 -40.195312 22.15625 -40.195312 C 25.460938 -40.195312 28.265625 -39.398438 30.574219 -37.8125 C 33.222656 -35.988281 35.023438 -33.230469 35.976562 -29.539062 L 35.421875 -29.398438 L 35.421875 -29.96875 L 40.597656 -29.96875 L 40.597656 -29.398438 L 40.039062 -29.28125 C 39.023438 -34.121094 36.816406 -37.800781 33.410156 -40.320312 C 31.863281 -41.464844 30.113281 -42.328125 28.160156 -42.90625 C 26.285156 -43.460938 24.28125 -43.738281 22.15625 -43.738281 C 19.351562 -43.738281 16.757812 -43.234375 14.371094 -42.222656 C 12.003906 -41.222656 9.957031 -39.773438 8.226562 -37.878906 C 6.464844 -35.941406 5.113281 -33.632812 4.171875 -30.949219 C 3.191406 -28.148438 2.699219 -25.054688 2.699219 -21.667969 C 2.699219 -18.28125 3.191406 -15.1875 4.171875 -12.386719 C 5.113281 -9.703125 6.464844 -7.394531 8.226562 -5.460938 C 9.957031 -3.5625 12.003906 -2.113281 14.371094 -1.113281 C 16.757812 -0.101562 19.351562 0.402344 22.15625 0.402344 Z M 22.15625 1.542969 C 19.195312 1.542969 16.453125 1.007812 13.925781 -0.0625 C 11.40625 -1.128906 9.226562 -2.671875 7.382812 -4.691406 C 5.515625 -6.738281 4.085938 -9.179688 3.09375 -12.011719 C 2.070312 -14.933594 1.558594 -18.152344 1.558594 -21.667969 C 1.558594 -25.183594 2.070312 -28.402344 3.09375 -31.324219 C 4.085938 -34.15625 5.515625 -36.597656 7.382812 -38.644531 C 9.226562 -40.667969 11.40625 -42.210938 13.925781 -43.273438 C 16.453125 -44.34375 19.195312 -44.878906 22.15625 -44.878906 C 24.394531 -44.878906 26.503906 -44.585938 28.484375 -44 C 30.566406 -43.382812 32.433594 -42.460938 34.089844 -41.238281 C 37.726562 -38.546875 40.082031 -34.640625 41.15625 -29.515625 L 41.300781 -28.828125 L 34.980469 -28.828125 L 34.871094 -29.253906 C 33.988281 -32.671875 32.339844 -35.207031 29.925781 -36.871094 C 27.8125 -38.324219 25.222656 -39.054688 22.15625 -39.054688 C 20.050781 -39.054688 18.132812 -38.664062 16.398438 -37.890625 C 14.679688 -37.121094 13.207031 -36 11.972656 -34.523438 C 10.714844 -33.023438 9.753906 -31.207031 9.089844 -29.078125 C 8.402344 -26.871094 8.058594 -24.398438 8.058594 -21.667969 C 8.058594 -18.9375 8.402344 -16.464844 9.089844 -14.257812 C 9.753906 -12.128906 10.714844 -10.3125 11.972656 -8.8125 C 13.207031 -7.335938 14.679688 -6.214844 16.398438 -5.445312 C 18.132812 -4.671875 20.050781 -4.285156 22.15625 -4.285156 C 23.675781 -4.285156 25.136719 -4.511719 26.539062 -4.964844 C 28.007812 -5.441406 29.320312 -6.140625 30.480469 -7.058594 C 33.105469 -9.136719 34.667969 -12.0625 35.164062 -15.839844 L 35.226562 -16.335938 L 41.46875 -16.335938 L 41.410156 -15.710938 C 41.136719 -12.898438 40.40625 -10.363281 39.214844 -8.105469 C 38.097656 -5.996094 36.621094 -4.195312 34.777344 -2.707031 C 33.042969 -1.304688 31.066406 -0.238281 28.847656 0.492188 C 26.714844 1.195312 24.484375 1.542969 22.15625 1.542969 Z M 22.15625 1.542969 "></path></g></g></g><g fill="#ffffff" fill-opacity="1"><g transform="translate(110.133897, 68.828619)"><g><path d="M 34.085938 -42.765625 L 3.957031 -42.765625 L 3.957031 -43.335938 L 4.527344 -43.335938 L 4.527344 0 L 3.957031 0 L 3.957031 -0.570312 L 33.839844 -0.570312 L 33.839844 0 L 33.269531 0 L 33.269531 -4.625 L 33.839844 -4.625 L 33.839844 -4.054688 L 8.5 -4.054688 L 8.5 -20.839844 L 31.648438 -20.839844 L 31.648438 -20.269531 L 31.078125 -20.269531 L 31.078125 -24.894531 L 31.648438 -24.894531 L 31.648438 -24.324219 L 8.5 -24.324219 L 8.5 -39.28125 L 34.085938 -39.28125 L 34.085938 -38.710938 L 33.515625 -38.710938 L 33.515625 -43.335938 L 34.085938 -43.335938 Z M 34.65625 -43.90625 L 34.65625 -38.140625 L 9.070312 -38.140625 L 9.070312 -38.710938 L 9.640625 -38.710938 L 9.640625 -24.894531 L 9.070312 -24.894531 L 9.070312 -25.464844 L 32.21875 -25.464844 L 32.21875 -19.699219 L 9.070312 -19.699219 L 9.070312 -20.269531 L 9.640625 -20.269531 L 9.640625 -4.625 L 9.070312 -4.625 L 9.070312 -5.195312 L 34.410156 -5.195312 L 34.410156 0.570312 L 3.386719 0.570312 L 3.386719 -43.90625 Z M 34.65625 -43.90625 "></path></g></g></g><g fill="#ffffff" fill-opacity="1"><g transform="translate(145.739515, 68.828619)"><g></g></g></g><g fill="#ffffff" fill-opacity="1"><g transform="translate(157.303731, 68.828619)"><g><path d="M 46.625 -21.816406 C 44.96875 -15.988281 43.613281 -10.820312 42.550781 -6.320312 L 41.445312 -6.308594 L 39.609375 -13.351562 L 37.308594 -21.945312 L 31.40625 -43.183594 L 31.953125 -43.335938 L 31.953125 -42.765625 L 26.234375 -42.765625 L 26.234375 -43.335938 L 26.78125 -43.183594 L 20.878906 -21.941406 L 18.578125 -13.347656 L 16.742188 -6.308594 L 15.632812 -6.320312 C 14.574219 -10.820312 13.21875 -15.988281 11.5625 -21.816406 L 5.660156 -43.183594 L 6.207031 -43.335938 L 6.207031 -42.765625 L 0.914062 -42.765625 L 0.914062 -43.335938 L 1.460938 -43.492188 L 13.757812 -0.15625 L 13.207031 0 L 13.207031 -0.570312 L 18.929688 -0.570312 L 18.929688 0 L 18.378906 -0.15625 L 24.589844 -22.25 C 26.128906 -27.640625 27.445312 -32.523438 28.539062 -36.902344 L 29.648438 -36.902344 C 30.742188 -32.523438 32.058594 -27.640625 33.597656 -22.25 L 39.808594 -0.15625 L 39.257812 0 L 39.257812 -0.570312 L 44.980469 -0.570312 L 44.980469 0 L 44.429688 -0.15625 L 56.726562 -43.492188 L 57.273438 -43.335938 L 57.273438 -42.765625 L 51.980469 -42.765625 L 51.980469 -43.335938 L 52.527344 -43.183594 L 46.625 -21.820312 Z M 45.523438 -22.125 L 51.542969 -43.90625 L 58.03125 -43.90625 L 45.410156 0.570312 L 38.824219 0.570312 L 32.5 -21.9375 C 30.957031 -27.339844 29.636719 -32.234375 28.539062 -36.625 L 29.09375 -36.761719 L 29.648438 -36.625 C 28.550781 -32.234375 27.230469 -27.339844 25.6875 -21.941406 L 19.363281 0.570312 L 12.777344 0.570312 L 0.15625 -43.90625 L 6.644531 -43.90625 L 12.660156 -22.128906 C 14.320312 -16.28125 15.683594 -11.101562 16.746094 -6.582031 L 16.191406 -6.453125 L 15.636719 -6.59375 L 17.476562 -13.644531 L 19.777344 -22.246094 L 25.800781 -43.90625 L 32.386719 -43.90625 L 38.410156 -22.242188 L 40.714844 -13.640625 L 42.550781 -6.59375 L 41.996094 -6.453125 L 41.441406 -6.582031 C 42.503906 -11.101562 43.867188 -16.28125 45.527344 -22.128906 Z M 45.523438 -22.125 "></path></g></g></g><g fill="#ffffff" fill-opacity="1"><g transform="translate(209.403463, 68.828619)"><g><path d="M 40.921875 0.214844 L 23.390625 -43.121094 L 23.921875 -43.335938 L 23.921875 -42.765625 L 18.199219 -42.765625 L 18.199219 -43.335938 L 18.730469 -43.125 L 1.441406 0.210938 L 0.914062 0 L 0.914062 -0.570312 L 6.269531 -0.570312 L 6.269531 0 L 5.738281 -0.210938 L 10.871094 -13.167969 L 31.367188 -13.167969 L 36.5625 -0.210938 L 36.03125 0 L 36.03125 -0.570312 L 41.449219 -0.570312 L 41.449219 0 Z M 42.296875 0.570312 L 35.644531 0.570312 L 30.449219 -12.386719 L 30.980469 -12.597656 L 30.980469 -12.027344 L 11.261719 -12.027344 L 11.261719 -12.597656 L 11.789062 -12.390625 L 6.65625 0.570312 L 0.0703125 0.570312 L 17.8125 -43.90625 L 24.304688 -43.90625 L 41.976562 -0.214844 Z M 12.738281 -17.921875 C 15.347656 -24.488281 17.921875 -31.179688 20.464844 -37.996094 L 20.984375 -39.394531 L 24.308594 -30.917969 L 29.441406 -17.984375 L 28.910156 -17.773438 L 29.433594 -18.003906 L 30.03125 -16.652344 L 12.261719 -16.652344 L 12.734375 -17.914062 Z M 13.804688 -17.511719 L 13.621094 -17.023438 L 13.085938 -17.226562 L 13.085938 -17.796875 L 29.15625 -17.796875 L 29.15625 -17.226562 L 28.632812 -16.992188 L 28.386719 -17.550781 L 23.246094 -30.503906 L 20.46875 -37.589844 L 21 -37.796875 L 21.535156 -37.597656 C 18.988281 -30.773438 16.410156 -24.074219 13.800781 -17.5 Z M 13.804688 -17.511719 "></path></g></g></g><g fill="#ffffff" fill-opacity="1"><g transform="translate(250.547707, 68.828619)"><g><path d="M 37.128906 -42.765625 L 31.40625 -42.765625 L 31.40625 -43.335938 L 31.875 -43.007812 L 25.910156 -34.488281 C 24.070312 -31.894531 22.085938 -28.996094 19.953125 -25.792969 L 19.472656 -25.078125 L 19 -25.796875 C 17.445312 -28.15625 15.5 -31.03125 13.164062 -34.429688 L 7.261719 -43.011719 L 7.730469 -43.335938 L 7.730469 -42.765625 L 1.765625 -42.765625 L 1.765625 -43.335938 L 2.234375 -43.664062 L 17.253906 -22.214844 L 1.378906 0.328125 L 0.914062 0 L 0.914062 -0.570312 L 6.632812 -0.570312 L 6.632812 0 L 6.167969 -0.328125 L 12.742188 -9.699219 C 15.433594 -13.515625 17.5 -16.515625 18.941406 -18.695312 L 19.417969 -19.417969 L 19.890625 -18.695312 C 21.628906 -16.0625 23.675781 -13.0625 26.03125 -9.699219 L 32.484375 -0.324219 L 32.015625 0 L 32.015625 -0.570312 L 37.980469 -0.570312 L 37.980469 0 L 37.511719 0.324219 L 21.765625 -22.398438 L 36.660156 -43.664062 L 37.128906 -43.335938 Z M 38.222656 -43.90625 L 22.925781 -22.070312 L 22.460938 -22.398438 L 22.929688 -22.722656 L 39.070312 0.570312 L 31.714844 0.570312 L 25.097656 -9.046875 C 22.734375 -12.417969 20.683594 -15.425781 18.941406 -18.066406 L 19.417969 -18.382812 L 19.890625 -18.066406 C 18.445312 -15.878906 16.375 -12.871094 13.675781 -9.046875 L 6.929688 0.570312 L -0.1875 0.570312 L 16.089844 -22.542969 L 16.554688 -22.214844 L 16.089844 -21.886719 L 0.667969 -43.90625 L 8.03125 -43.90625 L 14.105469 -35.078125 C 16.445312 -31.671875 18.394531 -28.789062 19.953125 -26.425781 L 19.476562 -26.109375 L 19.003906 -26.429688 C 21.140625 -29.636719 23.132812 -32.542969 24.972656 -35.140625 L 31.109375 -43.90625 Z M 38.222656 -43.90625 "></path></g></g></g><g fill="#ffffff" fill-opacity="1"><g transform="translate(289.440004, 68.828619)"><g><path d="M 3.386719 -43.90625 L 3.386719 0.570312 L 9.640625 0.570312 L 9.640625 -43.90625 Z M 4.527344 -42.765625 L 8.5 -42.765625 L 8.5 -0.570312 L 4.527344 -0.570312 Z M 4.527344 -42.765625 "></path></g></g></g><g fill="#ffffff" fill-opacity="1"><g transform="translate(302.464957, 68.828619)"><g><path d="M 33.925781 -28.726562 C 33.925781 -19.480469 33.984375 -12.019531 34.105469 -6.34375 L 33.039062 -6.050781 C 31.316406 -9.097656 28.320312 -13.980469 24.046875 -20.691406 L 9.683594 -43.027344 L 10.164062 -43.335938 L 10.164062 -42.765625 L 3.957031 -42.765625 L 3.957031 -43.335938 L 4.527344 -43.335938 L 4.527344 0 L 3.957031 0 L 3.957031 -0.570312 L 9.007812 -0.570312 L 9.007812 0 L 8.4375 0 L 8.4375 -14.609375 C 8.4375 -23.855469 8.375 -31.316406 8.253906 -36.992188 L 9.320312 -37.285156 C 11.046875 -34.238281 14.042969 -29.355469 18.316406 -22.644531 L 32.679688 -0.308594 L 32.199219 0 L 32.199219 -0.570312 L 38.40625 -0.570312 L 38.40625 0 L 37.835938 0 L 37.835938 -43.335938 L 38.40625 -43.335938 L 38.40625 -42.765625 L 33.355469 -42.765625 L 33.355469 -43.335938 L 33.925781 -43.335938 Z M 32.785156 -28.726562 L 32.785156 -43.90625 L 38.976562 -43.90625 L 38.976562 0.570312 L 31.886719 0.570312 L 17.351562 -22.03125 C 13.070312 -28.757812 10.0625 -33.65625 8.328125 -36.726562 L 8.824219 -37.007812 L 9.394531 -37.019531 C 9.519531 -31.332031 9.578125 -23.863281 9.578125 -14.609375 L 9.578125 0.570312 L 3.386719 0.570312 L 3.386719 -43.90625 L 10.476562 -43.90625 L 25.011719 -21.304688 C 29.292969 -14.578125 32.300781 -9.679688 34.035156 -6.609375 L 33.535156 -6.328125 L 32.964844 -6.316406 C 32.84375 -12.003906 32.785156 -19.472656 32.785156 -28.726562 Z M 32.785156 -28.726562 "></path></g></g></g><g fill="#ffffff" fill-opacity="1"><g transform="translate(344.826535, 68.828619)"><g><path d="M 23.675781 -18.222656 L 38.0625 -18.222656 L 38.0625 -17.652344 C 38.0625 -15.546875 37.652344 -13.582031 36.832031 -11.746094 C 36.050781 -9.996094 34.9375 -8.46875 33.496094 -7.15625 C 32.085938 -5.871094 30.453125 -4.886719 28.601562 -4.191406 C 26.734375 -3.492188 24.765625 -3.140625 22.703125 -3.140625 C 20.34375 -3.140625 18.179688 -3.578125 16.21875 -4.449219 C 14.277344 -5.304688 12.609375 -6.554688 11.214844 -8.1875 C 9.820312 -9.820312 8.757812 -11.773438 8.027344 -14.039062 C 7.285156 -16.34375 6.914062 -18.886719 6.914062 -21.667969 C 6.914062 -24.453125 7.285156 -26.996094 8.019531 -29.296875 C 8.746094 -31.566406 9.804688 -33.515625 11.191406 -35.148438 C 12.582031 -36.78125 14.25 -38.03125 16.191406 -38.890625 C 18.160156 -39.757812 20.328125 -40.195312 22.703125 -40.195312 C 24.460938 -40.195312 26.132812 -39.945312 27.71875 -39.449219 C 29.300781 -38.953125 30.722656 -38.230469 31.984375 -37.289062 C 33.273438 -36.324219 34.332031 -35.175781 35.160156 -33.839844 C 36.023438 -32.453125 36.601562 -30.925781 36.898438 -29.253906 L 36.335938 -29.15625 L 36.335938 -29.726562 L 41.632812 -29.726562 L 41.632812 -29.15625 L 41.070312 -29.0625 C 40.714844 -31.246094 40.035156 -33.242188 39.03125 -35.046875 C 38.03125 -36.839844 36.75 -38.382812 35.183594 -39.667969 C 33.589844 -40.980469 31.757812 -41.976562 29.691406 -42.667969 C 27.546875 -43.382812 25.21875 -43.738281 22.703125 -43.738281 C 19.6875 -43.738281 16.925781 -43.207031 14.421875 -42.140625 C 11.992188 -41.101562 9.898438 -39.609375 8.140625 -37.652344 C 6.386719 -35.703125 5.046875 -33.382812 4.121094 -30.695312 C 3.175781 -27.949219 2.699219 -24.941406 2.699219 -21.667969 C 2.699219 -18.398438 3.175781 -15.390625 4.128906 -12.640625 C 5.058594 -9.957031 6.398438 -7.636719 8.15625 -5.683594 C 9.910156 -3.730469 12 -2.234375 14.421875 -1.195312 C 16.917969 -0.128906 19.65625 0.402344 22.640625 0.402344 C 25.640625 0.402344 28.316406 -0.171875 30.667969 -1.328125 C 32.941406 -2.441406 34.839844 -4.058594 36.359375 -6.175781 L 37.136719 -7.257812 L 38.480469 -0.105469 L 37.917969 0 L 37.917969 -0.570312 L 42.117188 -0.570312 L 42.117188 0 L 41.546875 0 L 41.546875 -22.277344 L 42.117188 -22.277344 L 42.117188 -21.707031 L 23.675781 -21.707031 L 23.675781 -22.277344 L 24.246094 -22.277344 L 24.246094 -17.652344 L 23.675781 -17.652344 Z M 23.105469 -17.082031 L 23.105469 -22.847656 L 42.691406 -22.847656 L 42.691406 0.570312 L 37.445312 0.570312 L 36.261719 -5.738281 L 36.824219 -5.84375 L 37.285156 -5.511719 C 35.652344 -3.238281 33.613281 -1.5 31.171875 -0.300781 C 28.660156 0.929688 25.816406 1.542969 22.640625 1.542969 C 19.5 1.542969 16.609375 0.980469 13.972656 -0.148438 C 11.398438 -1.25 9.175781 -2.839844 7.304688 -4.921875 C 5.449219 -6.988281 4.03125 -9.4375 3.050781 -12.269531 C 2.054688 -15.140625 1.558594 -18.273438 1.558594 -21.667969 C 1.558594 -25.066406 2.054688 -28.199219 3.042969 -31.066406 C 4.019531 -33.902344 5.433594 -36.351562 7.289062 -38.414062 C 9.160156 -40.496094 11.390625 -42.085938 13.976562 -43.1875 C 16.625 -44.316406 19.53125 -44.878906 22.703125 -44.878906 C 25.339844 -44.878906 27.789062 -44.503906 30.050781 -43.75 C 32.253906 -43.015625 34.203125 -41.949219 35.90625 -40.550781 C 37.585938 -39.171875 38.960938 -37.523438 40.027344 -35.601562 C 41.097656 -33.679688 41.820312 -31.558594 42.195312 -29.246094 L 42.300781 -28.582031 L 35.859375 -28.582031 L 35.773438 -29.054688 C 35.503906 -30.582031 34.976562 -31.976562 34.191406 -33.238281 C 33.4375 -34.453125 32.472656 -35.496094 31.300781 -36.375 C 30.144531 -37.238281 28.835938 -37.902344 27.375 -38.359375 C 25.902344 -38.820312 24.34375 -39.054688 22.703125 -39.054688 C 20.488281 -39.054688 18.472656 -38.648438 16.652344 -37.84375 C 14.871094 -37.058594 13.339844 -35.910156 12.058594 -34.40625 C 10.769531 -32.890625 9.785156 -31.070312 9.105469 -28.949219 C 8.40625 -26.761719 8.058594 -24.335938 8.058594 -21.667969 C 8.058594 -19.003906 8.410156 -16.578125 9.113281 -14.390625 C 9.796875 -12.265625 10.789062 -10.445312 12.082031 -8.929688 C 13.363281 -7.425781 14.898438 -6.28125 16.679688 -5.492188 C 18.496094 -4.6875 20.503906 -4.285156 22.703125 -4.285156 C 24.628906 -4.285156 26.460938 -4.609375 28.203125 -5.261719 C 29.917969 -5.902344 31.425781 -6.816406 32.726562 -8 C 34.050781 -9.203125 35.074219 -10.609375 35.792969 -12.214844 C 36.546875 -13.898438 36.921875 -15.710938 36.921875 -17.652344 L 37.492188 -17.652344 L 37.492188 -17.082031 Z M 23.105469 -17.082031 "></path></g></g></g></g></g></svg>